<?xml version="1.0" standalone="no"?><!DOCTYPE svg PUBLIC "-//W3C//DTD SVG 1.1//EN" "http://www.w3.org/Graphics/SVG/1.1/DTD/svg11.dtd"><svg xmlns="http://www.w3.org/2000/svg" viewBox="0 0 650 400" version="1.1"><clipPath id="box"><rect x="0" y="0" width="650" height="400" style="fill:none;stroke:none;" /></clipPath><g clip-path="url(#box)"><rect x="0.00" y="0.00" width="650.00" height="400.00" style="fill:#FFFFFF;stroke:none;" /><path d="M0.00 399.00 L650.00 399.00 M0.00 359.00 L650.00 359.00 M0.00 319.00 L650.00 319.00 M0.00 279.00 L650.00 279.00 M0.00 239.00 L650.00 239.00 M0.00 199.00 L650.00 199.00 M0.00 159.00 L650.00 159.00 M0.00 119.00 L650.00 119.00 M0.00 79.00 L650.00 79.00 M0.00 39.00 L650.00 39.00 M23.00 0.00 L23.00 400.00 M63.00 0.00 L63.00 400.00 M103.00 0.00 L103.00 400.00 M143.00 0.00 L143.00 400.00 M183.00 0.00 L183.00 400.00 M223.00 0.00 L223.00 400.00 M263.00 0.00 L263.00 400.00 M303.00 0.00 L303.00 400.00 M343.00 0.00 L343.00 400.00 M383.00 0.00 L383.00 400.00 M423.00 0.00 L423.00 400.00 M463.00 0.00 L463.00 400.00 M503.00 0.00 L503.00 400.00 M544.00 0.00 L544.00 400.00 M583.00 0.00 L583.00 400.00 M623.00 0.00 L623.00 400.00 " style="fill:none;stroke:#D0D0D0;stroke-width:1;" /><path d="M264.00 0.00 L264.00 400.00 " style="fill:none;stroke:#000000;stroke-width:1;" /><path d="M257.50 439.00 L270.50 439.00 M257.50 399.00 L270.50 399.00 M257.50 359.00 L270.50 359.00 M257.50 319.00 L270.50 319.00 M257.50 279.00 L270.50 279.00 M257.50 239.00 L270.50 239.00 M257.50 199.00 L270.50 199.00 M257.50 159.00 L270.50 159.00 M257.50 119.00 L270.50 119.00 M257.50 79.00 L270.50 79.00 M257.50 39.00 L270.50 39.00 " style="fill:none;stroke:#000000;stroke-width:1;" /><path d="M0.00 279.00 L650.00 279.00 " style="fill:none;stroke:#000000;stroke-width:1;" /><path d="M-16.00 272.50 L-16.00 285.50 M24.00 272.50 L24.00 285.50 M64.00 272.50 L64.00 285.50 M104.00 272.50 L104.00 285.50 M144.00 272.50 L144.00 285.50 M184.00 272.50 L184.00 285.50 M224.00 272.50 L224.00 285.50 M264.00 272.50 L264.00 285.50 M304.00 272.50 L304.00 285.50 M344.00 272.50 L344.00 285.50 M384.00 272.50 L384.00 285.50 M424.00 272.50 L424.00 285.50 M464.00 272.50 L464.00 285.50 M504.00 272.50 L504.00 285.50 M544.00 272.50 L544.00 285.50 M584.00 272.50 L584.00 285.50 M624.00 272.50 L624.00 285.50 " style="fill:none;stroke:#000000;stroke-width:1;" /><text x="272.12499999999994" y="361.5" text-anchor="start" style="font:10px Droid Sans,Trebuchet MS,Arial,Helvetica,sans-serif;stroke:none;fill:#000000">-0.4</text><text x="272.12499999999994" y="321.49999999999994" text-anchor="start" style="font:10px Droid Sans,Trebuchet MS,Arial,Helvetica,sans-serif;stroke:none;fill:#000000">-0.2</text><text x="272.12499999999994" y="281.5" text-anchor="start" style="font:10px Droid Sans,Trebuchet MS,Arial,Helvetica,sans-serif;stroke:none;fill:#000000">0</text><text x="272.12499999999994" y="241.5" text-anchor="start" style="font:10px Droid Sans,Trebuchet MS,Arial,Helvetica,sans-serif;stroke:none;fill:#000000">0.2</text><text x="272.12499999999994" y="201.50000000000003" text-anchor="start" style="font:10px Droid Sans,Trebuchet MS,Arial,Helvetica,sans-serif;stroke:none;fill:#000000">0.4</text><text x="272.12499999999994" y="161.5" text-anchor="start" style="font:10px Droid Sans,Trebuchet MS,Arial,Helvetica,sans-serif;stroke:none;fill:#000000">0.6</text><text x="272.12499999999994" y="121.50000000000001" text-anchor="start" style="font:10px Droid Sans,Trebuchet MS,Arial,Helvetica,sans-serif;stroke:none;fill:#000000">0.8</text><text x="272.12499999999994" y="81.50000000000003" text-anchor="start" style="font:10px Droid Sans,Trebuchet MS,Arial,Helvetica,sans-serif;stroke:none;fill:#000000">1</text><text x="272.12499999999994" y="41.50000000000004" text-anchor="start" style="font:10px Droid Sans,Trebuchet MS,Arial,Helvetica,sans-serif;stroke:none;fill:#000000">1.2</text><text x="23.999999999999936" y="295.125" text-anchor="middle" style="font:10px Droid Sans,Trebuchet MS,Arial,Helvetica,sans-serif;stroke:none;fill:#000000">-1.2</text><text x="63.99999999999993" y="295.125" text-anchor="middle" style="font:10px Droid Sans,Trebuchet MS,Arial,Helvetica,sans-serif;stroke:none;fill:#000000">-1</text><text x="103.99999999999991" y="295.125" text-anchor="middle" style="font:10px Droid Sans,Trebuchet MS,Arial,Helvetica,sans-serif;stroke:none;fill:#000000">-0.8</text><text x="143.99999999999991" y="295.125" text-anchor="middle" style="font:10px Droid Sans,Trebuchet MS,Arial,Helvetica,sans-serif;stroke:none;fill:#000000">-0.6</text><text x="183.9999999999999" y="295.125" text-anchor="middle" style="font:10px Droid Sans,Trebuchet MS,Arial,Helvetica,sans-serif;stroke:none;fill:#000000">-0.4</text><text x="223.99999999999991" y="295.125" text-anchor="middle" style="font:10px Droid Sans,Trebuchet MS,Arial,Helvetica,sans-serif;stroke:none;fill:#000000">-0.2</text><text x="263.99999999999994" y="295.125" text-anchor="middle" style="font:10px Droid Sans,Trebuchet MS,Arial,Helvetica,sans-serif;stroke:none;fill:#000000">0</text><text x="303.99999999999994" y="295.125" text-anchor="middle" style="font:10px Droid Sans,Trebuchet MS,Arial,Helvetica,sans-serif;stroke:none;fill:#000000">0.2</text><text x="343.9999999999999" y="295.125" text-anchor="middle" style="font:10px Droid Sans,Trebuchet MS,Arial,Helvetica,sans-serif;stroke:none;fill:#000000">0.4</text><text x="383.9999999999999" y="295.125" text-anchor="middle" style="font:10px Droid Sans,Trebuchet MS,Arial,Helvetica,sans-serif;stroke:none;fill:#000000">0.6</text><text x="423.99999999999994" y="295.125" text-anchor="middle" style="font:10px Droid Sans,Trebuchet MS,Arial,Helvetica,sans-serif;stroke:none;fill:#000000">0.8</text><text x="463.9999999999999" y="295.125" text-anchor="middle" style="font:10px Droid Sans,Trebuchet MS,Arial,Helvetica,sans-serif;stroke:none;fill:#000000">1</text><text x="503.9999999999999" y="295.125" text-anchor="middle" style="font:10px Droid Sans,Trebuchet MS,Arial,Helvetica,sans-serif;stroke:none;fill:#000000">1.2</text><text x="544" y="295.125" text-anchor="middle" style="font:10px Droid Sans,Trebuchet MS,Arial,Helvetica,sans-serif;stroke:none;fill:#000000">1.4</text><text x="583.9999999999999" y="295.125" text-anchor="middle" style="font:10px Droid Sans,Trebuchet MS,Arial,Helvetica,sans-serif;stroke:none;fill:#000000">1.6</text><text x="623.9999999999999" y="295.125" text-anchor="middle" style="font:10px Droid Sans,Trebuchet MS,Arial,Helvetica,sans-serif;stroke:none;fill:#000000">1.8</text><path d="M94.85 400.00 L94.85 400.00 L95.31 399.00 L95.78 398.01 L96.25 397.01 L96.72 396.02 L97.20 395.02 L97.68 394.03 L98.16 393.03 L98.64 392.04 L99.13 391.05 L99.61 390.05 L100.11 389.06 L100.60 388.06 L101.10 387.07 L101.60 386.08 L102.10 385.08 L102.61 384.09 L103.12 383.10 L103.64 382.10 L104.15 381.11 L104.67 380.11 L105.20 379.12 L105.72 378.13 L106.25 377.13 L106.79 376.14 L107.33 375.15 L107.87 374.15 L108.41 373.16 L108.96 372.17 L109.51 371.18 L110.07 370.18 L110.63 369.19 L111.20 368.20 L111.76 367.20 L112.34 366.21 L112.91 365.22 L113.50 364.23 L114.08 363.24 L114.67 362.24 L115.27 361.25 L115.87 360.26 L116.48 359.27 L117.09 358.28 L117.70 357.28 L118.32 356.29 L118.95 355.30 L119.58 354.31 L120.21 353.32 L120.86 352.33 L121.50 351.34 L122.16 350.34 L122.82 349.35 L123.48 348.36 L124.15 347.37 L124.83 346.38 L125.52 345.39 L126.21 344.40 L126.91 343.41 L127.61 342.42 L128.33 341.43 L129.05 340.44 L129.78 339.45 L130.51 338.46 L131.26 337.48 L132.01 336.49 L132.77 335.50 L133.54 334.51 L134.32 333.52 L135.11 332.53 L135.90 331.55 L136.71 330.56 L137.53 329.57 L138.36 328.58 L139.20 327.60 L140.05 326.61 L140.91 325.62 L141.78 324.64 L142.67 323.65 L143.57 322.67 L144.48 321.68 L145.41 320.70 L146.35 319.71 L147.30 318.73 L148.28 317.75 L149.26 316.76 L150.27 315.78 L151.29 314.80 L152.33 313.82 L153.39 312.83 L154.47 311.85 L155.57 310.87 L156.69 309.89 L157.84 308.91 L159.01 307.94 L160.20 306.96 L161.43 305.98 L162.68 305.00 L163.96 304.03 L165.28 303.05 L166.63 302.08 L168.01 301.11 L169.44 300.14 L170.91 299.17 L172.42 298.20 L173.99 297.23 L175.60 296.27 L177.28 295.30 L179.02 294.34 L180.83 293.38 L182.71 292.43 L184.69 291.47 L186.69 290.55 L188.69 289.68 L190.69 288.85 L192.69 288.07 L194.69 287.33 L196.69 286.63 L198.69 285.97 L200.69 285.35 L202.69 284.76 L204.69 284.22 L206.69 283.71 L208.69 283.23 L210.69 282.79 L212.69 282.38 L214.69 282.00 L216.69 281.65 L218.69 281.33 L220.69 281.03 L222.69 280.76 L224.69 280.52 L226.69 280.30 L228.69 280.10 L230.69 279.92 L232.69 279.77 L234.69 279.63 L236.69 279.51 L238.69 279.41 L240.69 279.32 L242.69 279.24 L244.69 279.18 L246.69 279.13 L248.69 279.09 L250.69 279.06 L252.69 279.04 L254.69 279.02 L256.69 279.01 L258.69 279.00 L260.69 279.00 L262.69 279.00 L264.69 279.00 L266.69 279.00 L268.69 279.00 L270.69 278.99 L272.69 278.98 L274.69 278.97 L276.69 278.95 L278.69 278.92 L280.69 278.88 L282.69 278.84 L284.69 278.78 L286.69 278.71 L288.69 278.62 L290.69 278.52 L292.69 278.41 L294.69 278.28 L296.69 278.13 L298.69 277.96 L300.69 277.77 L302.69 277.55 L304.69 277.32 L306.69 277.06 L308.69 276.77 L310.69 276.46 L312.69 276.11 L314.69 275.74 L316.69 275.34 L318.69 274.91 L320.69 274.45 L322.69 273.95 L324.69 273.41 L326.69 272.84 L328.69 272.23 L330.69 271.59 L332.69 270.90 L334.69 270.17 L336.69 269.40 L338.69 268.59 L340.69 267.73 L342.69 266.82 L344.69 265.87 L346.69 264.87 L348.68 263.82 L350.59 262.77 L352.41 261.73 L354.15 260.69 L355.82 259.65 L357.43 258.61 L358.99 257.58 L360.49 256.54 L361.94 255.51 L363.35 254.48 L364.72 253.45 L366.06 252.43 L367.35 251.40 L368.62 250.38 L369.85 249.35 L371.05 248.33 L372.23 247.31 L373.38 246.28 L374.51 245.26 L375.61 244.24 L376.69 243.22 L377.75 242.20 L378.79 241.18 L379.81 240.17 L380.82 239.15 L381.80 238.13 L382.77 237.12 L383.72 236.10 L384.66 235.08 L385.58 234.07 L386.49 233.05 L387.39 232.04 L388.27 231.02 L389.14 230.01 L390.00 228.99 L390.84 227.98 L391.68 226.97 L392.50 225.95 L393.31 224.94 L394.11 223.93 L394.91 222.92 L395.69 221.90 L396.46 220.89 L397.23 219.88 L397.98 218.87 L398.73 217.86 L399.47 216.85 L400.20 215.84 L400.92 214.83 L401.64 213.82 L402.34 212.80 L403.04 211.79 L403.74 210.78 L404.42 209.77 L405.10 208.76 L405.78 207.76 L406.44 206.75 L407.10 205.74 L407.76 204.73 L408.41 203.72 L409.05 202.71 L409.68 201.70 L410.32 200.69 L410.94 199.68 L411.56 198.67 L412.18 197.67 L412.79 196.66 L413.39 195.65 L413.99 194.64 L414.59 193.63 L415.18 192.63 L415.76 191.62 L416.34 190.61 L416.92 189.60 L417.49 188.59 L418.06 187.59 L418.62 186.58 L419.18 185.57 L419.74 184.57 L420.29 183.56 L420.84 182.55 L421.38 181.54 L421.92 180.54 L422.46 179.53 L422.99 178.52 L423.52 177.52 L424.05 176.51 L424.57 175.50 L425.09 174.50 L425.60 173.49 L426.12 172.48 L426.62 171.48 L427.13 170.47 L427.63 169.47 L428.13 168.46 L428.63 167.45 L429.12 166.45 L429.61 165.44 L430.10 164.44 L430.58 163.43 L431.07 162.42 L431.55 161.42 L432.02 160.41 L432.50 159.41 L432.97 158.40 L433.44 157.40 L433.90 156.39 L434.36 155.38 L434.82 154.38 L435.28 153.37 L435.74 152.37 L436.19 151.36 L436.64 150.36 L437.09 149.35 L437.54 148.35 L437.98 147.34 L438.42 146.34 L438.86 145.33 L439.30 144.33 L439.73 143.32 L440.17 142.32 L440.60 141.31 L441.03 140.31 L441.45 139.30 L441.88 138.30 L442.30 137.29 L442.72 136.29 L443.14 135.28 L443.55 134.28 L443.97 133.27 L444.38 132.27 L444.79 131.26 L445.20 130.26 L445.61 129.26 L446.01 128.25 L446.42 127.25 L446.82 126.24 L447.22 125.24 L447.62 124.23 L448.01 123.23 L448.41 122.23 L448.80 121.22 L449.19 120.22 L449.58 119.21 L449.97 118.21 L450.36 117.20 L450.74 116.20 L451.12 115.20 L451.51 114.19 L451.89 113.19 L452.26 112.18 L452.64 111.18 L453.02 110.18 L453.39 109.17 L453.76 108.17 L454.13 107.16 L454.50 106.16 L454.87 105.16 L455.24 104.15 L455.60 103.15 L455.97 102.14 L456.33 101.14 L456.69 100.14 L457.05 99.13 L457.41 98.13 L457.77 97.13 L458.12 96.12 L458.48 95.12 L458.83 94.11 L459.18 93.11 L459.53 92.11 L459.88 91.10 L460.23 90.10 L460.58 89.10 L460.92 88.09 L461.27 87.09 L461.61 86.09 L461.95 85.08 L462.29 84.08 L462.63 83.08 L462.97 82.07 L463.31 81.07 L463.64 80.07 L463.98 79.06 L464.31 78.06 L464.65 77.06 L464.98 76.05 L465.31 75.05 L465.64 74.05 L465.97 73.04 L466.29 72.04 L466.62 71.04 L466.95 70.03 L467.27 69.03 L467.59 68.03 L467.92 67.02 L468.24 66.02 L468.56 65.02 L468.88 64.01 L469.19 63.01 L469.51 62.01 L469.83 61.00 L470.14 60.00 L470.46 59.00 L470.77 58.00 L471.08 56.99 L471.39 55.99 L471.70 54.99 L472.01 53.98 L472.32 52.98 L472.63 51.98 L472.94 50.97 L473.24 49.97 L473.55 48.97 L473.85 47.97 L474.15 46.96 L474.46 45.96 L474.76 44.96 L475.06 43.95 L475.36 42.95 L475.66 41.95 L475.96 40.95 L476.25 39.94 L476.55 38.94 L476.85 37.94 L477.14 36.93 L477.43 35.93 L477.73 34.93 L478.02 33.93 L478.31 32.92 L478.60 31.92 L478.89 30.92 L479.18 29.92 L479.47 28.91 L479.76 27.91 L480.04 26.91 L480.33 25.90 L480.61 24.90 L480.90 23.90 L481.18 22.90 L481.47 21.89 L481.75 20.89 L482.03 19.89 L482.31 18.89 L482.59 17.88 L482.87 16.88 L483.15 15.88 L483.43 14.88 L483.70 13.87 L483.98 12.87 L484.26 11.87 L484.53 10.87 L484.81 9.86 L485.08 8.86 L485.35 7.86 L485.63 6.86 L485.90 5.85 L486.17 4.85 L486.44 3.85 L486.71 2.85 L486.98 1.84 L487.25 0.84 L487.51 -0.16 " style="fill:none;stroke:#000000;stroke-width:1;" /></g></svg>